<svg width="24" height="24" viewBox="0 0 24 24" fill="none" xmlns="http://www.w3.org/2000/svg">
<path d="M20.7609 3.76778C20.7529 3.63017 20.6946 3.5003 20.5971 3.40282C20.4997 3.30535 20.3698 3.24706 20.2322 3.23903C13.1653 2.82278 7.51313 4.94153 5.11219 8.90621C3.47719 11.6053 3.54094 14.7937 5.28 17.925L3.3525 19.8525C3.29724 19.904 3.25291 19.9661 3.22216 20.0351C3.19142 20.1041 3.17489 20.1785 3.17356 20.2541C3.17222 20.3296 3.18612 20.4046 3.21441 20.4747C3.2427 20.5447 3.28481 20.6083 3.33822 20.6617C3.39164 20.7152 3.45526 20.7573 3.5253 20.7856C3.59534 20.8138 3.67037 20.8277 3.74589 20.8264C3.82142 20.8251 3.8959 20.8085 3.9649 20.7778C4.0339 20.7471 4.096 20.7027 4.1475 20.6475L6.075 18.72C7.69406 19.619 9.32813 20.0709 10.9022 20.0709C12.3819 20.0715 13.8328 19.662 15.0938 18.8878C19.0584 16.4868 21.1763 10.8347 20.7609 3.76778ZM14.5116 17.924C12.2541 19.2909 9.57656 19.2712 6.90563 17.8875L15.3984 9.39465C15.4978 9.28802 15.5519 9.14699 15.5493 9.00126C15.5467 8.85553 15.4877 8.7165 15.3847 8.61344C15.2816 8.51038 15.1426 8.45134 14.9968 8.44877C14.8511 8.4462 14.7101 8.50029 14.6034 8.59965L6.11063 17.0943C4.72688 14.4234 4.70438 11.7506 6.07406 9.4884C8.20031 5.97934 13.2581 4.06965 19.6678 4.33684C19.9303 10.7418 18.0206 15.8006 14.5116 17.9259V17.924Z" fill="#EFE7D2"/>
</svg>
